<svg id="Layer_1" data-name="Layer 1" xmlns="http://www.w3.org/2000/svg" viewBox="0 0 98.25 18.33"><defs><style>.cls-1{fill:#286efb;}</style></defs><title>cavistar-logo</title><path class="cls-1" d="M168.84,159.1a7.33,7.33,0,0,1-3-3.12,11.35,11.35,0,0,1,0-9.49,7.34,7.34,0,0,1,3-3.1,9.75,9.75,0,0,1,10.09.69,1.86,1.86,0,0,1,.52.59,1.65,1.65,0,0,1,.15.74,1.73,1.73,0,0,1-.36,1.1,1.08,1.08,0,0,1-.88.46,1.91,1.91,0,0,1-.61-.09,2.36,2.36,0,0,1-.58-.31,8.35,8.35,0,0,0-1.83-.93,5.61,5.61,0,0,0-1.81-.28,4.34,4.34,0,0,0-3.57,1.47,6.83,6.83,0,0,0-1.2,4.39q0,5.89,4.77,5.89a5.22,5.22,0,0,0,1.73-.28,10.93,10.93,0,0,0,1.91-.93,3.56,3.56,0,0,1,.62-.31,1.72,1.72,0,0,1,.57-.09,1.08,1.08,0,0,1,.88.46,1.73,1.73,0,0,1,.36,1.1,1.62,1.62,0,0,1-.16.75,1.83,1.83,0,0,1-.51.58,9.75,9.75,0,0,1-10.09.69Z" transform="translate(-164.83 -141.85)"/><path class="cls-1" d="M191,148.82a5.44,5.44,0,0,1,1.29,4v5.59a1.7,1.7,0,0,1-.47,1.27,1.8,1.8,0,0,1-1.31.46,1.72,1.72,0,0,1-1.27-.48,1.69,1.69,0,0,1-.48-1.25v-.17a2.91,2.91,0,0,1-1.24,1.44,3.87,3.87,0,0,1-2,.52,5,5,0,0,1-2.24-.49,3.92,3.92,0,0,1-1.58-1.39,3.54,3.54,0,0,1-.58-2,3.05,3.05,0,0,1,.68-2.1,4.07,4.07,0,0,1,2.19-1.11,19.33,19.33,0,0,1,4.13-.35h.64v-.45a2.11,2.11,0,0,0-.46-1.51,2.06,2.06,0,0,0-1.52-.47,9.72,9.72,0,0,0-3.07.74,2.33,2.33,0,0,1-1,.27,1.07,1.07,0,0,1-.87-.38,1.51,1.51,0,0,1-.32-1,1.4,1.4,0,0,1,.22-.82,2.06,2.06,0,0,1,.72-.59,8,8,0,0,1,2.12-.74,11.56,11.56,0,0,1,2.46-.27A5.36,5.36,0,0,1,191,148.82Zm-2.94,8a2.69,2.69,0,0,0,.67-1.89v-.42h-.42a8.45,8.45,0,0,0-2.81.32,1.16,1.16,0,0,0-.8,1.16,1.48,1.48,0,0,0,.46,1.13,1.61,1.61,0,0,0,1.15.43A2.27,2.27,0,0,0,188,156.86Z" transform="translate(-164.83 -141.85)"/><path class="cls-1" d="M204,147.85a1.6,1.6,0,0,1,.88-.26,1.87,1.87,0,0,1,1.24.46,1.39,1.39,0,0,1,.54,1.1,1.59,1.59,0,0,1-.17.72L202,159a1.78,1.78,0,0,1-.74.83,2.13,2.13,0,0,1-2.13,0,1.92,1.92,0,0,1-.77-.83L194,149.87a1.69,1.69,0,0,1-.15-.67,1.42,1.42,0,0,1,.58-1.14,2,2,0,0,1,1.3-.47,1.75,1.75,0,0,1,.94.26,1.79,1.79,0,0,1,.67.78l3,6.66,3-6.66A1.82,1.82,0,0,1,204,147.85Z" transform="translate(-164.83 -141.85)"/><path class="cls-1" d="M208.6,145.08a1.74,1.74,0,0,1-.57-1.37,1.71,1.71,0,0,1,.57-1.36,2.29,2.29,0,0,1,1.56-.49,2.27,2.27,0,0,1,1.55.51,1.7,1.7,0,0,1,.58,1.35,1.75,1.75,0,0,1-.57,1.37,2.65,2.65,0,0,1-3.12,0Zm.21,14.58a1.61,1.61,0,0,1-.53-1.31v-9a1.6,1.6,0,0,1,.54-1.31,2,2,0,0,1,1.34-.45,2,2,0,0,1,1.32.45,1.61,1.61,0,0,1,.53,1.31v9a1.61,1.61,0,0,1-.53,1.31,2,2,0,0,1-1.32.45A2,2,0,0,1,208.81,159.67Z" transform="translate(-164.83 -141.85)"/><path class="cls-1" d="M216.86,159.91a5.92,5.92,0,0,1-2-.79,1.51,1.51,0,0,1-.57-.59,1.76,1.76,0,0,1-.2-.84,1.43,1.43,0,0,1,.32-1,1,1,0,0,1,.79-.38,2,2,0,0,1,.64.11l.67.26a8.82,8.82,0,0,0,1.36.51,6.3,6.3,0,0,0,1.66.19,2.77,2.77,0,0,0,1.35-.27.83.83,0,0,0,.48-.74.75.75,0,0,0-.21-.56,1.94,1.94,0,0,0-.78-.38q-.57-.17-1.81-.42a6.81,6.81,0,0,1-3.17-1.26,3,3,0,0,1-1-2.35,3.21,3.21,0,0,1,.68-2A4.52,4.52,0,0,1,217,148a6.75,6.75,0,0,1,2.67-.51,8,8,0,0,1,2.08.27,6.65,6.65,0,0,1,1.81.77,1.65,1.65,0,0,1,.45,2.38,1,1,0,0,1-.79.4,2.9,2.9,0,0,1-1.36-.45,7.27,7.27,0,0,0-1.13-.48,4,4,0,0,0-1.2-.16,2.24,2.24,0,0,0-1.21.28.88.88,0,0,0-.45.78.86.86,0,0,0,.52.79,8.13,8.13,0,0,0,2,.54,10.82,10.82,0,0,1,2.6.78,3.14,3.14,0,0,1,1.36,1.15,3.34,3.34,0,0,1,.42,1.76,3.27,3.27,0,0,1-1.45,2.8,6.51,6.51,0,0,1-3.87,1A12.24,12.24,0,0,1,216.86,159.91Z" transform="translate(-164.83 -141.85)"/><path class="cls-1" d="M234.65,157.76a1.38,1.38,0,0,1-.22,2,2.64,2.64,0,0,1-1.63.3l-.69,0q-4.33-.35-4.33-4.53v-4.9h-1a1.86,1.86,0,0,1-1.24-.36,1.28,1.28,0,0,1-.42-1,1.31,1.31,0,0,1,.42-1.05,1.86,1.86,0,0,1,1.24-.36h1v-1.93a1.67,1.67,0,0,1,.51-1.29,1.94,1.94,0,0,1,1.37-.47,1.9,1.9,0,0,1,1.36.47,1.69,1.69,0,0,1,.49,1.29v1.93h1.73q1.68,0,1.68,1.41a1.28,1.28,0,0,1-.42,1,1.9,1.9,0,0,1-1.26.36h-1.73v5.17a1.62,1.62,0,0,0,.35,1.13,1.45,1.45,0,0,0,1,.43l.69,0A1.74,1.74,0,0,1,234.65,157.76Z" transform="translate(-164.83 -141.85)"/><path class="cls-1" d="M245.81,148.82a5.44,5.44,0,0,1,1.29,4v5.59a1.7,1.7,0,0,1-.47,1.27,1.8,1.8,0,0,1-1.31.46,1.72,1.72,0,0,1-1.27-.48,1.69,1.69,0,0,1-.48-1.25v-.17a2.91,2.91,0,0,1-1.24,1.44,3.87,3.87,0,0,1-2,.52,5,5,0,0,1-2.24-.49,3.92,3.92,0,0,1-1.58-1.39,3.54,3.54,0,0,1-.58-2,3.05,3.05,0,0,1,.68-2.1,4.07,4.07,0,0,1,2.19-1.11,19.33,19.33,0,0,1,4.13-.35h.64v-.45a2.11,2.11,0,0,0-.46-1.51,2.06,2.06,0,0,0-1.52-.47,9.72,9.72,0,0,0-3.07.74,2.33,2.33,0,0,1-1,.27,1.07,1.07,0,0,1-.87-.38,1.51,1.51,0,0,1-.32-1,1.4,1.4,0,0,1,.22-.82,2.06,2.06,0,0,1,.72-.59,8,8,0,0,1,2.12-.74,11.56,11.56,0,0,1,2.46-.27A5.36,5.36,0,0,1,245.81,148.82Zm-2.94,8a2.69,2.69,0,0,0,.67-1.89v-.42h-.42a8.45,8.45,0,0,0-2.81.32,1.16,1.16,0,0,0-.8,1.16,1.48,1.48,0,0,0,.46,1.13,1.61,1.61,0,0,0,1.15.43A2.27,2.27,0,0,0,242.87,156.86Z" transform="translate(-164.83 -141.85)"/><path class="cls-1" d="M258.32,147.9a1.46,1.46,0,0,1,.43,1.15,1.65,1.65,0,0,1-.4,1.21,2.3,2.3,0,0,1-1.41.5l-.74.07a2.82,2.82,0,0,0-2,.89,2.91,2.91,0,0,0-.61,1.9v4.73a1.61,1.61,0,0,1-.53,1.31,2,2,0,0,1-1.32.45,2,2,0,0,1-1.35-.45,1.61,1.61,0,0,1-.53-1.31v-9.08a1.54,1.54,0,0,1,.54-1.26,2,2,0,0,1,1.31-.45A1.81,1.81,0,0,1,253,148a1.51,1.51,0,0,1,.5,1.2v.67a3.44,3.44,0,0,1,1.35-1.63,4.18,4.18,0,0,1,2-.64l.35,0A1.55,1.55,0,0,1,258.32,147.9Z" transform="translate(-164.83 -141.85)"/><path class="cls-1" d="M259.47,159.5a2.25,2.25,0,0,1,0-3,2.18,2.18,0,0,1,3,0,2.25,2.25,0,0,1,0,3,2.18,2.18,0,0,1-3,0Z" transform="translate(-164.83 -141.85)"/></svg>